<svg 
 xmlns="http://www.w3.org/2000/svg"
 xmlns:xlink="http://www.w3.org/1999/xlink"
 width="11px" height="14px">
<path fill-rule="evenodd"  fill="rgb(136, 136, 136)"
 d="M9.797,14.005 L1.204,14.005 C0.539,14.005 -0.004,13.449 -0.004,12.766 L-0.004,1.240 C-0.004,0.557 0.539,0.001 1.204,0.001 L9.797,0.001 C10.463,0.001 11.005,0.557 11.005,1.240 L11.005,12.766 C11.005,13.449 10.463,14.005 9.797,14.005 ZM9.970,1.240 C9.970,1.144 9.891,1.063 9.797,1.063 L1.204,1.063 C1.111,1.063 1.032,1.144 1.032,1.240 L1.032,12.766 C1.032,12.862 1.111,12.943 1.204,12.943 L9.797,12.943 C9.891,12.943 9.970,12.862 9.970,12.766 L9.970,1.240 ZM8.069,8.685 L2.933,8.685 C2.647,8.685 2.415,8.447 2.415,8.154 C2.415,7.861 2.647,7.623 2.933,7.623 L8.069,7.623 C8.355,7.623 8.587,7.861 8.587,8.154 C8.587,8.447 8.355,8.685 8.069,8.685 ZM8.044,6.460 L2.908,6.460 C2.622,6.460 2.390,6.222 2.390,5.929 C2.390,5.636 2.622,5.398 2.908,5.398 L8.044,5.398 C8.330,5.398 8.562,5.636 8.562,5.929 C8.562,6.222 8.330,6.460 8.044,6.460 ZM5.999,4.235 L2.908,4.235 C2.622,4.235 2.390,3.997 2.390,3.704 C2.390,3.410 2.622,3.173 2.908,3.173 L5.999,3.173 C6.285,3.173 6.517,3.410 6.517,3.704 C6.517,3.997 6.285,4.235 5.999,4.235 ZM2.908,9.848 L8.044,9.848 C8.330,9.848 8.562,10.086 8.562,10.379 C8.562,10.672 8.330,10.910 8.044,10.910 L2.908,10.910 C2.622,10.910 2.390,10.672 2.390,10.379 C2.390,10.086 2.622,9.848 2.908,9.848 Z"/>
</svg>