<svg 
 xmlns="http://www.w3.org/2000/svg"
 xmlns:xlink="http://www.w3.org/1999/xlink"
 width="67px" height="12px">
<path fill-rule="evenodd"  fill="rgb(255, 255, 255)"
 d="M63.746,8.039 L61.568,8.039 L61.568,10.732 L60.616,10.732 L60.616,2.202 L63.746,2.202 C65.805,2.202 66.995,3.250 66.995,5.066 C66.995,6.954 65.805,8.039 63.746,8.039 ZM63.710,3.141 L61.568,3.141 L61.568,7.101 L63.710,7.101 C65.210,7.101 66.079,6.418 66.079,5.090 C66.079,3.798 65.210,3.141 63.710,3.141 ZM57.343,8.575 L52.796,8.575 L51.868,10.732 L50.856,10.732 L54.594,2.202 L55.581,2.202 L59.307,10.732 L58.271,10.732 L57.343,8.575 ZM55.058,3.311 L53.201,7.637 L56.938,7.637 L55.058,3.311 ZM45.917,2.202 L46.869,2.202 L46.869,9.806 L50.523,9.806 L50.523,10.732 L45.917,10.732 L45.917,2.202 ZM41.157,9.818 C42.073,9.818 42.966,9.428 43.620,8.794 L44.203,9.464 C43.382,10.256 42.263,10.780 41.109,10.780 C38.705,10.780 36.801,8.867 36.801,6.455 C36.801,4.067 38.729,2.178 41.145,2.178 C42.287,2.178 43.394,2.653 44.192,3.421 L43.620,4.164 C42.977,3.494 42.073,3.092 41.157,3.092 C39.276,3.092 37.765,4.578 37.765,6.455 C37.765,8.319 39.276,9.818 41.157,9.818 ZM34.111,2.202 L35.063,2.202 L35.063,10.732 L34.111,10.732 L34.111,2.202 ZM27.958,2.202 L28.910,2.202 L28.910,9.806 L32.563,9.806 L32.563,10.732 L27.958,10.732 L27.958,2.202 ZM23.197,9.818 C24.113,9.818 25.006,9.428 25.661,8.794 L26.244,9.464 C25.422,10.256 24.304,10.780 23.149,10.780 C20.745,10.780 18.841,8.867 18.841,6.455 C18.841,4.067 20.769,2.178 23.185,2.178 C24.328,2.178 25.434,2.653 26.232,3.421 L25.661,4.164 C25.018,3.494 24.113,3.092 23.197,3.092 C21.317,3.092 19.805,4.578 19.805,6.455 C19.805,8.319 21.317,9.818 23.197,9.818 ZM11.562,12.000 C10.074,12.000 8.761,11.232 7.982,10.062 C7.197,11.232 5.874,12.000 4.374,12.000 C1.965,12.000 0.012,10.019 0.012,7.574 C0.012,6.499 0.390,5.512 1.019,4.745 C0.980,4.698 0.948,4.645 0.927,4.586 C0.829,4.323 0.950,4.019 1.206,3.805 C0.874,3.813 0.584,3.664 0.486,3.401 C0.388,3.137 0.509,2.833 0.766,2.620 C0.433,2.627 0.144,2.478 0.046,2.214 C-0.088,1.854 0.185,1.418 0.657,1.241 C0.925,1.139 1.332,1.041 1.332,1.041 C2.636,0.748 6.253,1.790 7.675,4.681 C7.785,4.810 7.888,4.945 7.982,5.086 C8.068,4.958 8.160,4.834 8.258,4.715 C9.638,1.743 13.247,0.776 14.568,1.074 C14.568,1.074 14.975,1.174 15.244,1.276 C15.717,1.455 15.991,1.894 15.857,2.257 C15.759,2.523 15.469,2.673 15.136,2.665 C15.392,2.881 15.514,3.187 15.415,3.452 C15.317,3.718 15.028,3.868 14.694,3.860 C14.951,4.076 15.072,4.382 14.974,4.647 C14.958,4.691 14.937,4.732 14.911,4.769 C15.523,5.533 15.891,6.510 15.891,7.574 C15.891,10.019 13.953,12.000 11.562,12.000 ZM11.444,3.636 C9.825,3.636 8.439,4.647 7.866,6.080 C7.275,4.719 5.934,3.769 4.375,3.769 C2.268,3.769 0.560,5.502 0.560,7.639 C0.560,9.776 2.268,11.509 4.375,11.509 C5.966,11.509 7.331,10.518 7.902,9.112 C8.496,10.499 9.858,11.469 11.444,11.469 C13.575,11.469 15.303,9.715 15.303,7.552 C15.303,5.389 13.575,3.636 11.444,3.636 ZM10.887,9.956 C9.653,9.956 8.652,8.937 8.652,7.679 C8.652,6.422 9.653,5.402 10.887,5.402 C12.122,5.402 13.123,6.422 13.123,7.679 C13.123,8.937 12.122,9.956 10.887,9.956 ZM10.713,6.274 C10.532,6.297 10.364,6.356 10.213,6.441 C10.481,6.520 10.690,6.754 10.727,7.053 C10.777,7.455 10.499,7.821 10.106,7.872 C9.874,7.902 9.655,7.812 9.504,7.652 C9.502,7.719 9.504,7.787 9.513,7.856 C9.609,8.633 10.302,9.183 11.060,9.085 C11.818,8.986 12.356,8.278 12.260,7.502 C12.165,6.725 11.472,6.175 10.713,6.274 ZM4.775,9.827 C3.542,9.827 2.542,8.809 2.542,7.552 C2.542,6.296 3.542,5.277 4.775,5.277 C6.009,5.277 7.009,6.296 7.009,7.552 C7.009,8.809 6.009,9.827 4.775,9.827 ZM6.149,7.375 C6.053,6.599 5.360,6.048 4.602,6.147 C4.420,6.170 4.252,6.229 4.102,6.315 C4.369,6.393 4.578,6.627 4.615,6.927 C4.665,7.328 4.387,7.694 3.995,7.745 C3.762,7.775 3.543,7.685 3.392,7.525 C3.391,7.592 3.392,7.661 3.401,7.730 C3.497,8.506 4.189,9.056 4.948,8.958 C5.707,8.860 6.244,8.151 6.149,7.375 Z"/>
</svg>