<svg 
 xmlns="http://www.w3.org/2000/svg"
 xmlns:xlink="http://www.w3.org/1999/xlink"
 width="13px" height="13px">
<path fill-rule="evenodd"  fill="rgb(180, 181, 181)"
 d="M4.532,-0.002 C6.307,-0.002 9.092,0.579 9.781,1.063 C9.933,1.169 10.023,1.341 10.023,1.523 L10.023,7.051 C10.023,7.224 9.942,7.387 9.804,7.494 C9.762,7.527 8.759,8.305 7.711,8.873 C6.411,9.579 5.514,10.574 5.300,11.192 C5.036,11.956 4.675,13.002 3.503,13.002 C2.947,13.002 2.490,12.692 2.250,12.150 C1.764,11.053 2.276,9.528 3.131,8.322 C2.555,8.189 1.841,8.016 1.422,7.886 C0.642,7.644 0.115,7.087 0.013,6.394 C-0.091,5.682 0.277,4.970 1.027,4.418 C1.577,2.935 2.540,0.585 3.240,0.200 C3.498,0.058 3.963,-0.002 4.532,-0.002 ZM8.873,1.859 C7.782,1.406 4.444,0.935 3.811,1.184 C3.476,1.484 2.634,3.368 2.047,4.969 C2.005,5.082 1.928,5.179 1.826,5.246 C1.351,5.560 1.105,5.919 1.151,6.232 C1.188,6.484 1.418,6.699 1.767,6.807 C2.489,7.030 4.259,7.416 4.277,7.420 C4.478,7.464 4.640,7.610 4.702,7.804 C4.763,7.998 4.714,8.209 4.574,8.357 C3.283,9.725 3.054,11.135 3.304,11.698 C3.381,11.871 3.461,11.871 3.503,11.871 C3.787,11.871 3.919,11.676 4.212,10.828 C4.555,9.836 5.738,8.653 7.156,7.883 C7.844,7.509 8.533,7.021 8.873,6.771 L8.873,1.859 ZM11.134,1.475 L11.134,7.117 C11.134,7.624 11.552,8.036 12.068,8.036 C12.584,8.036 13.002,7.624 13.002,7.117 L13.002,1.475 C13.002,0.968 12.584,0.556 12.068,0.556 C11.552,0.556 11.134,0.968 11.134,1.475 Z"/>
</svg>