<svg 
 xmlns="http://www.w3.org/2000/svg"
 xmlns:xlink="http://www.w3.org/1999/xlink"
 width="12px" height="14px">
<path fill-rule="evenodd"  fill="rgb(136, 136, 136)"
 d="M10.420,8.059 C10.237,7.875 9.831,7.778 9.214,7.770 C8.797,7.765 8.295,7.803 7.766,7.878 C7.529,7.739 7.285,7.587 7.094,7.404 C6.579,6.913 6.148,6.232 5.881,5.482 C5.898,5.412 5.913,5.350 5.927,5.288 C5.927,5.288 6.217,3.605 6.140,3.036 C6.129,2.958 6.123,2.936 6.102,2.875 L6.077,2.809 C5.998,2.623 5.843,2.426 5.601,2.437 L5.459,2.432 L5.455,2.432 C5.184,2.432 4.964,2.574 4.906,2.785 C4.730,3.447 4.912,4.437 5.241,5.721 L5.156,5.930 C4.921,6.516 4.626,7.106 4.365,7.627 L4.331,7.695 C4.057,8.242 3.808,8.707 3.583,9.101 L3.350,9.226 C3.333,9.235 2.935,9.451 2.841,9.508 C2.047,9.992 1.522,10.541 1.434,10.977 C1.406,11.116 1.427,11.294 1.568,11.376 L1.794,11.492 C1.891,11.542 1.994,11.567 2.100,11.567 C2.665,11.567 3.321,10.848 4.225,9.238 C5.269,8.891 6.457,8.603 7.498,8.444 C8.292,8.900 9.268,9.217 9.884,9.217 C9.994,9.217 10.088,9.206 10.164,9.186 C10.282,9.154 10.382,9.085 10.443,8.992 C10.563,8.808 10.587,8.555 10.554,8.296 C10.545,8.219 10.485,8.124 10.420,8.059 ZM1.977,11.129 C2.080,10.842 2.488,10.273 3.092,9.768 C3.130,9.737 3.223,9.647 3.308,9.564 C2.677,10.592 2.255,11.001 1.977,11.129 ZM5.550,2.730 C5.732,2.730 5.835,3.197 5.844,3.636 C5.852,4.074 5.752,4.382 5.627,4.609 C5.524,4.272 5.474,3.741 5.474,3.394 C5.474,3.394 5.467,2.730 5.550,2.730 ZM4.484,8.716 C4.611,8.484 4.743,8.240 4.877,7.982 C5.205,7.348 5.412,6.853 5.567,6.446 C5.873,7.016 6.256,7.500 6.705,7.888 C6.760,7.937 6.820,7.985 6.882,8.034 C5.969,8.218 5.179,8.443 4.484,8.716 ZM10.244,8.663 C10.188,8.699 10.029,8.719 9.926,8.719 C9.596,8.719 9.186,8.565 8.612,8.313 C8.833,8.297 9.035,8.288 9.216,8.288 C9.548,8.288 9.647,8.287 9.971,8.371 C10.295,8.456 10.299,8.628 10.244,8.663 ZM11.242,2.727 L9.329,0.773 C8.912,0.348 8.089,-0.000 7.500,-0.000 L1.071,-0.000 C0.482,-0.000 -0.000,0.492 -0.000,1.094 L-0.000,12.906 C-0.000,13.508 0.482,14.000 1.071,14.000 L10.928,14.000 C11.517,14.000 12.000,13.508 12.000,12.906 L12.000,4.593 C12.000,3.992 11.658,3.152 11.242,2.727 ZM10.636,3.345 C10.678,3.388 10.720,3.441 10.760,3.500 L8.571,3.500 L8.571,1.265 C8.629,1.307 8.681,1.349 8.722,1.392 L10.636,3.345 ZM11.143,12.906 C11.143,13.025 11.044,13.125 10.928,13.125 L1.071,13.125 C0.955,13.125 0.857,13.025 0.857,12.906 L0.857,1.094 C0.857,0.975 0.955,0.875 1.071,0.875 L7.500,0.875 C7.564,0.875 7.637,0.883 7.714,0.898 L7.714,4.375 L11.119,4.375 C11.134,4.454 11.143,4.527 11.143,4.593 L11.143,12.906 Z"/>
</svg>