<svg 
 xmlns="http://www.w3.org/2000/svg"
 xmlns:xlink="http://www.w3.org/1999/xlink"
 width="17px" height="12px">
<path fill-rule="evenodd"  fill="rgb(136, 136, 136)"
 d="M14.510,12.000 L2.490,12.000 C1.117,12.000 -0.000,10.965 -0.000,9.692 L-0.000,2.307 C-0.000,1.035 1.117,-0.000 2.490,-0.000 L14.510,-0.000 C15.883,-0.000 17.000,1.035 17.000,2.307 L17.000,9.692 C17.000,10.965 15.883,12.000 14.510,12.000 ZM16.003,2.307 C16.003,1.544 15.333,0.923 14.510,0.923 L2.490,0.923 C1.666,0.923 0.995,1.544 0.995,2.307 L0.995,9.692 C0.995,10.456 1.666,11.077 2.490,11.077 L14.510,11.077 C15.333,11.077 16.003,10.456 16.003,9.692 L16.003,2.307 ZM6.009,2.908 L12.003,5.993 L6.009,9.182 L6.009,2.908 ZM7.006,7.587 L9.977,6.006 L7.006,4.477 L7.006,7.587 Z"/>
</svg>